<svg width="18" height="18" viewBox="0 0 30 30" fill="none" xmlns="http://www.w3.org/2000/svg">
<path d="M10 20H19.079C24.6885 20 25.5416 16.476 26.5763 11.3363C26.8747 9.85388 27.0239 9.11265 26.6651 8.61882C26.3792 8.22548 25.8847 8.14544 25 8.12915" stroke="black" stroke-width="1.5" stroke-linecap="round"/>
<path d="M11.25 8.125H21.25M16.25 13.125V3.125" stroke="black" stroke-width="1.5" stroke-linecap="round"/>
<path d="M10 20L6.72341 4.39366C6.44519 3.28074 5.44523 2.5 4.29806 2.5H3.125" stroke="black" stroke-width="1.5" stroke-linecap="round"/>
<path d="M11.1 20H10.5857C8.88152 20 7.5 21.4391 7.5 23.2143C7.5 23.5102 7.73025 23.75 8.01429 23.75H21.875" stroke="black" stroke-width="1.5" stroke-linecap="round" stroke-linejoin="round"/>
<circle cx="13.125" cy="25.625" r="1.875" stroke="black" stroke-width="1.5"/>
<circle cx="21.875" cy="25.625" r="1.875" stroke="black" stroke-width="1.5"/>
</svg>
