<svg width="50" height="48" viewBox="0 0 50 48" fill="none" xmlns="http://www.w3.org/2000/svg">
<path d="M25 0.166656C11.2348 0.166656 0 10.813 0 23.8571C0 36.9013 11.2348 47.5476 25 47.5476C38.7652 47.5476 50 36.9013 50 23.8571C50 10.813 38.7652 0.166656 25 0.166656ZM6.98381 23.8571C6.98381 18.9656 9.21053 14.4577 12.753 11.3885C14.17 10.1416 16.5992 10.5252 17.6113 12.1558L23.8866 22.4185C24.4939 23.3776 24.4939 24.5285 23.8866 25.4876L17.6113 35.7503C16.5992 37.4768 14.17 37.7645 12.6518 36.4217C9.21053 33.1607 6.98381 28.7487 6.98381 23.8571ZM32.3887 35.5585L26.1134 25.2958C25.5061 24.3367 25.5061 23.1857 26.1134 22.2266L32.3887 11.9639C33.4008 10.3334 35.7287 9.94977 37.247 11.1966C40.7895 14.2658 43.0162 18.7738 43.0162 23.6653C43.0162 28.5569 40.7895 33.0648 37.247 36.134C35.7287 37.6686 33.4008 37.2849 32.3887 35.5585Z" fill="#007BFF"/>
</svg>
