<svg width="30" height="20" viewBox="0 0 30 20" fill="none" xmlns="http://www.w3.org/2000/svg">
<rect width="30" height="20" rx="3" fill="white"/>
<path d="M18.8789 14V6H23.8398V7.03906H20.0859V9.47656H23.4844V10.5117H20.0859V14H18.8789Z" fill="black"/>
<path d="M8.00391 14.1797C7.6862 14.1797 7.39453 14.1016 7.12891 13.9453C6.86328 13.7865 6.65234 13.5755 6.49609 13.3125C6.33984 13.0469 6.26172 12.7552 6.26172 12.4375C6.26172 12.1172 6.33984 11.8255 6.49609 11.5625C6.65234 11.2969 6.86328 11.0846 7.12891 10.9258C7.39453 10.7669 7.6862 10.6875 8.00391 10.6875H8.86328V9.30469H8.00391C7.6862 9.30469 7.39453 9.22656 7.12891 9.07031C6.86328 8.91406 6.65234 8.70443 6.49609 8.44141C6.33984 8.17578 6.26172 7.88281 6.26172 7.5625C6.26172 7.24219 6.33984 6.95052 6.49609 6.6875C6.65234 6.42448 6.86328 6.21484 7.12891 6.05859C7.39453 5.89974 7.6862 5.82031 8.00391 5.82031C8.32422 5.82031 8.61589 5.89974 8.87891 6.05859C9.14453 6.21484 9.35547 6.42448 9.51172 6.6875C9.67057 6.95052 9.75 7.24219 9.75 7.5625V8.41406H11.1367V7.5625C11.1367 7.24219 11.2148 6.95052 11.3711 6.6875C11.5273 6.42448 11.737 6.21484 12 6.05859C12.2656 5.89974 12.5586 5.82031 12.8789 5.82031C13.1992 5.82031 13.4909 5.89974 13.7539 6.05859C14.0169 6.21484 14.2266 6.42448 14.3828 6.6875C14.5391 6.95052 14.6172 7.24219 14.6172 7.5625C14.6172 7.88281 14.5391 8.17578 14.3828 8.44141C14.2266 8.70443 14.0169 8.91406 13.7539 9.07031C13.4909 9.22656 13.1992 9.30469 12.8789 9.30469H12.0234V10.6875H12.8789C13.1992 10.6875 13.4909 10.7669 13.7539 10.9258C14.0169 11.0846 14.2266 11.2969 14.3828 11.5625C14.5391 11.8255 14.6172 12.1172 14.6172 12.4375C14.6172 12.7552 14.5391 13.0469 14.3828 13.3125C14.2266 13.5755 14.0169 13.7865 13.7539 13.9453C13.4909 14.1016 13.1992 14.1797 12.8789 14.1797C12.5586 14.1797 12.2656 14.1016 12 13.9453C11.737 13.7865 11.5273 13.5755 11.3711 13.3125C11.2148 13.0469 11.1367 12.7552 11.1367 12.4375V11.5781H9.75V12.4375C9.75 12.7552 9.67057 13.0469 9.51172 13.3125C9.35547 13.5755 9.14453 13.7865 8.87891 13.9453C8.61589 14.1016 8.32422 14.1797 8.00391 14.1797ZM8.00391 13.2891C8.16276 13.2891 8.30599 13.2513 8.43359 13.1758C8.5638 13.1003 8.66797 12.9974 8.74609 12.8672C8.82422 12.737 8.86328 12.5937 8.86328 12.4375V11.5781H8.00391C7.84766 11.5781 7.70443 11.6172 7.57422 11.6953C7.44401 11.7708 7.33984 11.8737 7.26172 12.0039C7.1862 12.1341 7.14844 12.2786 7.14844 12.4375C7.14844 12.5937 7.1862 12.737 7.26172 12.8672C7.33984 12.9974 7.44401 13.1003 7.57422 13.1758C7.70443 13.2513 7.84766 13.2891 8.00391 13.2891ZM8.00391 8.41406H8.86328V7.5625C8.86328 7.40365 8.82422 7.26042 8.74609 7.13281C8.66797 7.0026 8.5638 6.89974 8.43359 6.82422C8.30599 6.7487 8.16276 6.71094 8.00391 6.71094C7.84766 6.71094 7.70443 6.7487 7.57422 6.82422C7.44401 6.89974 7.33984 7.0026 7.26172 7.13281C7.1862 7.26042 7.14844 7.40365 7.14844 7.5625C7.14844 7.72135 7.1862 7.86589 7.26172 7.99609C7.33984 8.1237 7.44401 8.22526 7.57422 8.30078C7.70443 8.3763 7.84766 8.41406 8.00391 8.41406ZM12.0234 8.41406H12.8789C13.0378 8.41406 13.181 8.3763 13.3086 8.30078C13.4362 8.22526 13.5378 8.1237 13.6133 7.99609C13.6914 7.86589 13.7305 7.72135 13.7305 7.5625C13.7305 7.40365 13.6914 7.26042 13.6133 7.13281C13.5378 7.0026 13.4362 6.89974 13.3086 6.82422C13.181 6.7487 13.0378 6.71094 12.8789 6.71094C12.7201 6.71094 12.5755 6.7487 12.4453 6.82422C12.3151 6.89974 12.2122 7.0026 12.1367 7.13281C12.0612 7.26042 12.0234 7.40365 12.0234 7.5625V8.41406ZM12.8789 13.2891C13.0378 13.2891 13.181 13.2513 13.3086 13.1758C13.4362 13.1003 13.5378 12.9974 13.6133 12.8672C13.6914 12.737 13.7305 12.5937 13.7305 12.4375C13.7305 12.2786 13.6914 12.1341 13.6133 12.0039C13.5378 11.8737 13.4362 11.7708 13.3086 11.6953C13.181 11.6172 13.0378 11.5781 12.8789 11.5781H12.0234V12.4375C12.0234 12.5937 12.0612 12.737 12.1367 12.8672C12.2122 12.9974 12.3151 13.1003 12.4453 13.1758C12.5755 13.2513 12.7201 13.2891 12.8789 13.2891ZM9.75 10.6875H11.1367V9.30469H9.75V10.6875Z" fill="black"/>
</svg>
